<svg xmlns="http://www.w3.org/2000/svg" viewBox="0 0 23.44 21"><defs><style>.cls-1{fill:#fff;}</style></defs><title>house</title><g id="Layer_2" data-name="Layer 2"><g id="Layer_1-2" data-name="Layer 1"><path class="cls-1" d="M.2,11H3.52a.2.2,0,0,1,.2.2v9.6a.2.2,0,0,0,.2.2h4.6a.2.2,0,0,0,.2-.2V13.2a.2.2,0,0,1,.2-.2h5.6a.2.2,0,0,1,.2.2v7.6a.2.2,0,0,0,.2.2h4.6a.2.2,0,0,0,.2-.2V11.2a.2.2,0,0,1,.2-.2h3.32a.2.2,0,0,0,.14-.34L12.78.06A.2.2,0,0,0,12.63,0H10.8a.2.2,0,0,0-.14.06L.06,10.66A.2.2,0,0,0,.2,11Z"/></g></g></svg>